<svg width="451" height="636" viewBox="0 0 451 636" fill="none" xmlns="http://www.w3.org/2000/svg">
<path d="M221.735 555.507C240.572 580.402 239.598 612.876 219.559 628.038C199.52 643.2 168.005 635.31 149.168 610.414C130.331 585.519 131.305 553.045 151.344 537.883C171.383 522.721 202.898 530.611 221.735 555.507Z" fill="#FB7962"/>
<path d="M99.3207 515.227C111.221 536.625 111.198 559.349 99.2686 565.983C87.3394 572.618 68.0218 560.65 56.1215 539.252C44.2211 517.855 44.2445 495.13 56.1736 488.496C68.1028 481.861 87.4204 493.829 99.3207 515.227Z" fill="#FB7962"/>
<path d="M69.4431 396.138C73.8152 430.084 62.018 459.579 43.0932 462.016C24.1684 464.454 5.28252 438.911 0.910374 404.965C-3.46177 371.019 8.33548 341.525 27.2603 339.087C46.185 336.65 65.0709 362.192 69.4431 396.138Z" fill="#FB7962"/>
<path d="M152.052 246.613C144.968 307.505 111.705 353.666 77.7575 349.717C43.8102 345.767 22.0334 293.203 29.1178 232.31C36.2021 171.418 69.4648 125.257 103.412 129.207C137.359 133.156 159.136 185.721 152.052 246.613Z" fill="#FB7962"/>
<path d="M383.299 202.948C345.465 287.866 271.388 337.368 217.841 313.511C164.294 289.655 151.556 201.476 189.389 116.557C227.222 31.6379 301.3 -17.8632 354.847 5.99297C408.394 29.8491 421.132 118.029 383.299 202.948Z" fill="#FB7962"/>
<path d="M444.233 447.215C463.75 495.662 433.455 553.515 376.567 576.432C319.679 599.349 257.741 578.653 238.224 530.206C218.707 481.759 249.002 423.907 305.89 400.99C362.778 378.072 424.716 398.768 444.233 447.215Z" fill="#FB7962"/>
</svg>
